<svg width="512" height="512" viewBox="0 0 512 512" xmlns="http://www.w3.org/2000/svg">
  <!-- Background gradient -->
  <defs>
    <linearGradient id="grad" x1="0%" y1="0%" x2="100%" y2="100%">
      <stop offset="0%" style="stop-color:#2563eb;stop-opacity:1" />
      <stop offset="100%" style="stop-color:#1e40af;stop-opacity:1" />
    </linearGradient>
  </defs>

  <!-- Background -->
  <rect width="512" height="512" fill="url(#grad)" rx="80"/>

  <!-- Crescent Moon (Islamic symbol) -->
  <path d="M 256 96 A 120 120 0 1 1 256 416 A 100 100 0 1 0 256 96 Z" fill="#ffffff" opacity="0.9"/>

  <!-- Star -->
  <path d="M 320 256 L 332 288 L 365 288 L 338 308 L 350 340 L 320 320 L 290 340 L 302 308 L 275 288 L 308 288 Z" fill="#ffffff" opacity="0.9"/>

  <!-- Play button icon -->
  <circle cx="256" cy="340" r="60" fill="#ffffff"/>
  <path d="M 240 310 L 290 340 L 240 370 Z" fill="#2563eb"/>

  <!-- Book/Quran representation (pages) -->
  <rect x="200" y="140" width="60" height="80" fill="#ffffff" opacity="0.3" rx="4"/>
  <rect x="210" y="150" width="50" height="60" fill="none" stroke="#ffffff" stroke-width="2" rx="2"/>
  <line x1="235" y1="150" x2="235" y2="210" stroke="#ffffff" stroke-width="2"/>
</svg>
